<?xml version="1.0" standalone="no"?>
<!DOCTYPE svg PUBLIC "-//W3C//DTD SVG 20010904//EN"
 "http://www.w3.org/TR/2001/REC-SVG-20010904/DTD/svg10.dtd">
<svg version="1.0" xmlns="http://www.w3.org/2000/svg"
 width="500.000000pt" height="500.000000pt" viewBox="0 0 500.000000 500.000000"
 preserveAspectRatio="xMidYMid meet">
<metadata>
Created by potrace 1.11, written by Peter Selinger 2001-2013
</metadata>
<g transform="translate(0.000000,500.000000) scale(0.100000,-0.100000)"
fill="#000000" stroke="none">
<path d="M1842 4858 c-7 -7 -12 -18 -12 -25 0 -7 -4 -13 -10 -13 -5 0 -10 -7
-10 -15 0 -8 -4 -15 -10 -15 -5 0 -10 -10 -10 -22 0 -12 -3 -18 -6 -15 -4 4
-20 -15 -37 -41 -16 -26 -34 -50 -39 -53 -5 -3 -9 -9 -9 -13 3 -20 0 -26 -9
-21 -6 4 -9 2 -8 -3 3 -11 -17 -45 -44 -73 -9 -9 -14 -19 -12 -22 2 -2 -2 -10
-11 -17 -8 -7 -15 -19 -15 -26 0 -8 -4 -14 -10 -14 -5 0 -12 -11 -16 -25 -3
-14 -9 -23 -13 -21 -3 2 -15 -13 -25 -35 -11 -21 -23 -39 -28 -39 -5 0 -6 -4
-3 -10 3 -5 2 -10 -3 -10 -5 0 -15 -12 -23 -27 -8 -16 -18 -33 -24 -40 -5 -7
-15 -19 -22 -27 -6 -7 -9 -17 -6 -20 4 -3 2 -6 -4 -6 -6 0 -18 -16 -27 -35 -9
-19 -21 -35 -26 -35 -6 0 -9 -3 -8 -7 3 -16 -15 -43 -25 -36 -5 3 -7 1 -3 -5
3 -6 0 -16 -7 -24 -7 -7 -16 -21 -20 -30 -3 -10 -11 -18 -17 -18 -6 0 -8 -4
-5 -10 3 -5 1 -10 -5 -10 -6 0 -8 -4 -5 -10 3 -5 1 -10 -4 -10 -6 0 -11 -6
-11 -14 0 -8 -7 -17 -16 -20 -8 -3 -12 -10 -9 -16 3 -5 1 -10 -4 -10 -6 0 -11
-5 -11 -10 0 -6 -9 -20 -20 -32 -11 -12 -20 -28 -20 -35 0 -7 -4 -13 -10 -13
-5 0 -10 -7 -10 -15 0 -9 -7 -18 -15 -21 -8 -4 -12 -10 -9 -15 3 -5 0 -9 -5
-9 -6 0 -11 -7 -11 -15 0 -8 -4 -15 -10 -15 -5 0 -10 -7 -10 -15 0 -9 -7 -18
-15 -21 -8 -4 -12 -10 -9 -15 3 -5 0 -9 -6 -9 -6 0 -9 -4 -5 -9 3 -6 -1 -13
-9 -18 -8 -4 -24 -28 -36 -51 -13 -24 -29 -46 -37 -49 -8 -3 -12 -12 -9 -19 3
-8 2 -14 -2 -14 -4 0 -18 -18 -32 -40 -14 -22 -28 -40 -33 -40 -4 0 -6 -4 -3
-9 3 -5 -1 -14 -9 -21 -8 -7 -15 -16 -15 -21 0 -5 -9 -20 -21 -33 -12 -13 -20
-27 -20 -30 1 -4 -8 -16 -19 -28 -11 -12 -20 -28 -20 -35 0 -7 -4 -13 -10 -13
-5 0 -10 -4 -10 -9 0 -9 -86 -141 -110 -168 -6 -7 -8 -13 -5 -13 4 0 -1 -7 -9
-16 -9 -8 -28 -36 -43 -62 -15 -26 -33 -51 -40 -55 -7 -5 -11 -12 -9 -16 3 -4
-3 -17 -13 -28 -11 -11 -26 -33 -34 -50 -9 -16 -23 -35 -31 -42 -9 -7 -14 -17
-11 -21 3 -5 -5 -16 -17 -24 -12 -9 -18 -16 -13 -16 6 0 1 -7 -9 -15 -11 -8
-16 -15 -11 -15 4 0 0 -9 -10 -20 -10 -11 -14 -20 -10 -20 4 0 -3 -10 -16 -23
-13 -13 -25 -30 -27 -38 -2 -7 -13 -24 -24 -36 -12 -13 -17 -23 -12 -23 5 0 4
-4 -2 -8 -6 -4 -25 -28 -41 -54 -17 -26 -34 -44 -38 -40 -5 4 -6 0 -2 -9 3 -9
-5 -27 -19 -43 -14 -14 -24 -27 -22 -27 2 -1 324 -2 716 -3 466 -1 716 -5 720
-12 4 -5 22 -31 40 -56 17 -26 32 -50 32 -55 0 -4 16 -28 35 -52 19 -24 35
-47 35 -52 0 -4 6 -14 14 -21 7 -8 21 -28 30 -46 9 -18 22 -32 28 -32 6 0 8
-3 5 -7 -4 -3 4 -21 18 -39 14 -18 25 -37 25 -42 0 -6 7 -12 15 -16 8 -3 15
-10 15 -16 0 -10 74 -126 100 -157 6 -7 7 -13 3 -13 -4 0 -3 -4 3 -8 6 -4 41
-54 79 -112 37 -58 75 -111 83 -118 9 -6 12 -12 8 -12 -4 0 4 -15 18 -33 15
-19 26 -39 26 -44 0 -6 7 -17 16 -24 9 -7 20 -22 25 -34 13 -29 135 -215 159
-243 11 -13 20 -30 20 -37 0 -8 6 -18 13 -22 8 -4 24 -28 38 -53 13 -25 30
-49 37 -53 6 -4 12 -15 12 -22 0 -8 5 -15 10 -15 6 0 10 -7 10 -15 0 -7 8 -19
18 -24 9 -6 13 -11 9 -11 -4 0 11 -25 33 -55 22 -30 40 -57 40 -60 0 -3 24
-41 53 -84 28 -43 57 -85 62 -93 6 -8 27 -41 48 -72 20 -31 37 -59 37 -63 0
-3 7 -13 15 -22 9 -9 45 -61 80 -116 35 -55 68 -104 73 -110 4 -5 11 -18 15
-28 8 -22 26 -18 41 9 6 10 17 23 24 27 6 4 12 12 12 17 0 6 20 40 45 77 25
38 50 75 55 83 36 57 105 156 112 158 4 2 6 8 2 13 -3 5 0 9 5 9 6 0 11 5 11
11 0 6 16 33 35 59 19 26 35 52 35 57 0 5 8 18 18 29 23 25 74 104 67 104 -3
0 4 10 15 22 41 47 50 58 45 58 -6 0 45 81 56 90 3 3 14 20 23 38 9 17 22 32
28 32 6 0 9 3 5 6 -3 3 -1 11 4 18 8 9 43 62 84 125 6 9 31 47 56 86 25 38 72
111 104 160 32 50 62 91 67 93 4 2 8 10 8 17 0 8 7 18 16 23 9 5 16 13 16 18
0 14 31 64 41 64 4 0 6 4 3 9 -3 5 1 11 9 15 8 3 15 12 15 20 0 9 10 24 22 36
12 11 18 20 14 20 -4 0 4 14 18 31 14 17 26 37 26 45 0 8 4 14 10 14 5 0 19
18 30 40 11 22 25 40 31 40 6 0 8 4 4 9 -3 5 0 13 6 17 6 3 17 22 25 40 8 19
19 34 24 34 6 0 10 6 10 13 0 8 9 22 20 32 11 10 22 27 26 38 6 21 15 33 46
67 9 10 14 21 11 24 -4 3 -1 6 5 6 7 0 12 6 12 14 0 7 16 34 35 59 19 25 35
50 35 54 0 5 7 18 15 28 58 76 87 118 106 154 11 23 27 45 33 49 7 4 18 22 25
39 7 18 18 30 23 27 6 -4 8 2 6 12 -3 18 -29 19 -722 22 -652 2 -721 4 -738
19 -10 9 -18 20 -18 25 0 5 -9 18 -20 30 -11 12 -20 28 -20 35 0 7 -4 13 -10
13 -5 0 -10 7 -10 15 0 8 -4 15 -10 15 -5 0 -10 7 -10 15 0 8 -4 15 -10 15 -5
0 -10 6 -10 13 0 8 -9 22 -20 32 -11 10 -20 27 -20 37 0 11 -4 16 -10 13 -5
-3 -10 1 -10 9 0 9 -5 16 -11 16 -5 0 -7 5 -4 10 3 6 2 10 -3 10 -5 0 -15 12
-23 28 -8 15 -20 33 -27 40 -7 8 -9 18 -6 24 4 6 3 8 -3 5 -5 -3 -17 10 -28
29 -10 19 -22 34 -27 34 -5 0 -6 5 -3 10 3 6 -1 13 -9 16 -9 3 -16 15 -16 27
0 11 -3 17 -7 14 -3 -4 -16 11 -27 32 -12 21 -42 70 -67 107 -26 38 -47 73
-47 77 0 5 -10 17 -22 27 -12 10 -22 22 -22 27 -1 13 -62 103 -70 103 -4 0 -4
7 -1 17 4 11 3 14 -5 9 -7 -4 -12 -1 -12 8 0 9 -4 16 -10 16 -5 0 -10 9 -10
20 0 11 -4 20 -9 20 -9 0 -47 57 -48 74 -1 5 -5 12 -10 15 -15 10 -55 71 -46
71 4 0 -3 7 -15 16 -12 8 -20 19 -17 24 3 4 2 10 -3 12 -8 3 -72 95 -72 104 0
3 -6 12 -12 19 -31 34 -36 43 -31 49 3 3 -2 8 -11 12 -9 3 -13 10 -10 15 3 5
-2 12 -10 15 -9 3 -13 10 -10 15 3 5 0 9 -5 9 -6 0 -11 7 -11 15 0 9 -7 18
-15 21 -8 4 -13 9 -10 14 2 4 -5 16 -15 28 -11 12 -20 25 -20 30 0 5 -11 21
-25 36 -13 14 -22 26 -19 26 5 0 -54 90 -65 100 -3 3 -13 19 -21 35 -8 17 -22
38 -31 48 -9 9 -22 30 -30 45 -8 15 -21 34 -29 42 -8 8 -16 22 -18 30 -2 8 -8
17 -13 18 -5 2 -9 10 -9 17 0 7 -3 15 -7 17 -12 5 -53 66 -53 78 0 5 -4 10
-10 10 -5 0 -10 7 -10 15 0 8 -4 15 -8 15 -10 0 -37 51 -33 63 1 5 -3 6 -9 2
-5 -3 -10 1 -10 9 0 21 -14 28 -28 14z"/>
</g>
</svg>
